<svg width="20" height="20" viewBox="0 0 20 20" fill="none" xmlns="http://www.w3.org/2000/svg">
<path d="M16 3.25H14.75V2C14.75 1.035 13.965 0.25 13 0.25H7C6.035 0.25 5.25 1.035 5.25 2V3.25H4C1.582 3.25 0.25 4.582 0.25 7V7.11902V9.25305V16C0.25 18.418 1.582 19.75 4 19.75H16C18.418 19.75 19.75 18.418 19.75 16V9.25305V7.11902V7C19.75 4.582 18.418 3.25 16 3.25ZM6.75 2C6.75 1.862 6.862 1.75 7 1.75H13C13.138 1.75 13.25 1.862 13.25 2V3.25H6.75V2ZM1.75 7C1.75 5.423 2.423 4.75 4 4.75H16C17.577 4.75 18.25 5.423 18.25 7V7.11902V9.25305C18.25 9.55405 18.079 9.81694 17.804 9.93994C16.939 10.3259 15.465 10.876 13.358 11.306C13.255 11.327 13.144 11.248 13.084 11.16C12.359 10.077 11.207 9.43103 10 9.43103C8.793 9.43103 7.641 10.077 6.916 11.16C6.857 11.249 6.75 11.329 6.642 11.306C4.536 10.876 3.061 10.3259 2.196 9.93994C1.921 9.81694 1.75 9.55405 1.75 9.25305V7.11902V7ZM16 18.25H4C2.423 18.25 1.75 17.577 1.75 16V11.38C2.7 11.791 4.223 12.342 6.341 12.775C7.031 12.915 7.749 12.61 8.162 11.993C8.608 11.327 9.295 10.9301 10 10.9301C10.705 10.9301 11.392 11.327 11.837 11.993C12.183 12.51 12.741 12.809 13.32 12.809C13.432 12.809 13.545 12.798 13.657 12.775C15.776 12.342 17.299 11.791 18.249 11.38V16C18.25 17.577 17.577 18.25 16 18.25ZM11.02 13C11.02 13.552 10.572 14 10.02 14C9.468 14 9.015 13.552 9.015 13C9.015 12.448 9.457 12 10.01 12H10.02C10.572 12 11.02 12.448 11.02 13Z" fill="#F57F17"/>
</svg>
