<svg width="18" height="20" viewBox="0 0 18 20" fill="none" xmlns="http://www.w3.org/2000/svg">
<path d="M9 19.749C8.424 19.749 7.84806 19.53 7.40906 19.091L5.38904 17.072C5.12504 16.81 4.70496 16.781 4.40796 17.003L3.05005 18.022C2.51605 18.422 1.81302 18.485 1.21802 18.187C0.621018 17.889 0.25 17.289 0.25 16.622V4C0.25 1.582 1.582 0.25 4 0.25H14C16.418 0.25 17.75 1.582 17.75 4V16.621C17.75 17.288 17.379 17.888 16.782 18.186C16.187 18.484 15.484 18.421 14.95 18.021L13.5909 17.001C13.2949 16.779 12.873 16.808 12.611 17.071L10.5909 19.09C10.1519 19.53 9.576 19.749 9 19.749ZM4.85596 15.356C5.43696 15.356 6.01595 15.578 6.44995 16.011L8.46997 18.031C8.75297 18.314 9.24701 18.314 9.53101 18.031L11.551 16.012C12.338 15.225 13.605 15.137 14.491 15.803L15.851 16.823C15.959 16.905 16.06 16.872 16.113 16.847C16.164 16.821 16.251 16.758 16.251 16.623V4C16.251 2.423 15.578 1.75 14.001 1.75H4.00098C2.42398 1.75 1.75098 2.423 1.75098 4V16.621C1.75098 16.756 1.83804 16.819 1.88904 16.845C1.94204 16.871 2.042 16.903 2.151 16.821L3.51001 15.801C3.90801 15.503 4.38296 15.356 4.85596 15.356ZM13.75 7C13.75 6.586 13.414 6.25 13 6.25H8C7.586 6.25 7.25 6.586 7.25 7C7.25 7.414 7.586 7.75 8 7.75H13C13.414 7.75 13.75 7.414 13.75 7ZM13.75 11C13.75 10.586 13.414 10.25 13 10.25H8C7.586 10.25 7.25 10.586 7.25 11C7.25 11.414 7.586 11.75 8 11.75H13C13.414 11.75 13.75 11.414 13.75 11ZM5 6.25C4.586 6.25 4.25 6.586 4.25 7C4.25 7.414 4.586 7.75 5 7.75C5.414 7.75 5.75 7.414 5.75 7C5.75 6.586 5.414 6.25 5 6.25ZM5 10.25C4.586 10.25 4.25 10.586 4.25 11C4.25 11.414 4.586 11.75 5 11.75C5.414 11.75 5.75 11.414 5.75 11C5.75 10.586 5.414 10.25 5 10.25Z" fill="#F57F17"/>
</svg>
