<svg width="13" height="12" viewBox="0 0 13 12" fill="none" xmlns="http://www.w3.org/2000/svg">
<path d="M10.5 0.833496H2.5C0.888 0.833496 0 1.7215 0 3.3335V8.66683C0 10.2788 0.888 11.1668 2.5 11.1668H10.5C12.112 11.1668 13 10.2788 13 8.66683V3.3335C13 1.7215 12.112 0.833496 10.5 0.833496ZM12 8.66683C12 9.71816 11.5513 10.1668 10.5 10.1668H2.5C1.44867 10.1668 1 9.71816 1 8.66683V5.16683H12V8.66683ZM12 4.16683H1V3.3335C1 2.28216 1.44867 1.8335 2.5 1.8335H10.5C11.5513 1.8335 12 2.28216 12 3.3335V4.16683ZM2.66667 8.00016C2.66667 7.72416 2.89067 7.50016 3.16667 7.50016H5.16667C5.44267 7.50016 5.66667 7.72416 5.66667 8.00016C5.66667 8.27616 5.44267 8.50016 5.16667 8.50016H3.16667C2.89067 8.50016 2.66667 8.27616 2.66667 8.00016Z" fill="#414141"/>
</svg>
