<svg width="15" height="13" viewBox="0 0 15 13" fill="none" xmlns="http://www.w3.org/2000/svg">
<path d="M6.8335 9.49984H2.8335C1.78216 9.49984 1.3335 9.05117 1.3335 7.99984V4.49984H12.3335V4.6665C12.3335 4.9425 12.5575 5.1665 12.8335 5.1665C13.1095 5.1665 13.3335 4.9425 13.3335 4.6665V2.6665C13.3335 1.0545 12.4455 0.166504 10.8335 0.166504H2.8335C1.2215 0.166504 0.333496 1.0545 0.333496 2.6665V7.99984C0.333496 9.61184 1.2215 10.4998 2.8335 10.4998H6.8335C7.1095 10.4998 7.3335 10.2758 7.3335 9.99984C7.3335 9.72384 7.1095 9.49984 6.8335 9.49984ZM2.8335 1.1665H10.8335C11.8848 1.1665 12.3335 1.61517 12.3335 2.6665V3.49984H1.3335V2.6665C1.3335 1.61517 1.78216 1.1665 2.8335 1.1665ZM5.50016 6.83317C5.77616 6.83317 6.00016 7.05717 6.00016 7.33317C6.00016 7.60917 5.77616 7.83317 5.50016 7.83317H3.50016C3.22416 7.83317 3.00016 7.60917 3.00016 7.33317C3.00016 7.05717 3.22416 6.83317 3.50016 6.83317H5.50016ZM12.8335 9.33317C12.8335 9.60917 12.6095 9.83317 12.3335 9.83317H10.6668C10.3908 9.83317 10.1668 9.60917 10.1668 9.33317C10.1668 9.05717 10.3908 8.83317 10.6668 8.83317H12.3335C12.6095 8.83317 12.8335 9.05717 12.8335 9.33317ZM11.5002 6.1665C9.75416 6.1665 8.3335 7.58717 8.3335 9.33317C8.3335 11.0792 9.75416 12.4998 11.5002 12.4998C13.2462 12.4998 14.6668 11.0792 14.6668 9.33317C14.6668 7.58717 13.2462 6.1665 11.5002 6.1665ZM11.5002 11.4998C10.3055 11.4998 9.3335 10.5278 9.3335 9.33317C9.3335 8.1385 10.3055 7.1665 11.5002 7.1665C12.6948 7.1665 13.6668 8.1385 13.6668 9.33317C13.6668 10.5278 12.6948 11.4998 11.5002 11.4998Z" fill="#E8E8E8"/>
</svg>
