<svg width="26" height="25" viewBox="0 0 26 25" fill="none" xmlns="http://www.w3.org/2000/svg">
<path d="M25 23.0001H23.6667V21.3334C23.6667 20.4441 23.2227 20.0001 22.3333 20.0001H22V10.6667H22.3333C23.2227 10.6667 23.6667 10.2227 23.6667 9.3334V5.92129C23.6667 5.41595 23.3814 4.95489 22.9294 4.72955L13.8947 0.211977C13.332 -0.0693568 12.6693 -0.0693568 12.1053 0.211977L3.07064 4.72955C2.61864 4.95489 2.33333 5.41729 2.33333 5.92129V9.3334C2.33333 10.2227 2.77733 10.6667 3.66667 10.6667H4V20.0001H3.66667C2.77733 20.0001 2.33333 20.4441 2.33333 21.3334V23.0001H1C0.448 23.0001 0 23.4481 0 24.0001C0 24.5521 0.448 25.0001 1 25.0001H25C25.552 25.0001 26 24.5521 26 24.0001C26 23.4481 25.552 23.0001 25 23.0001ZM13 3.66673C13.92 3.66673 14.6667 4.4134 14.6667 5.3334C14.6667 6.2534 13.92 7.00006 13 7.00006C12.08 7.00006 11.3333 6.2534 11.3333 5.3334C11.3333 4.4134 12.08 3.66673 13 3.66673ZM6 20.0001V10.6667H9.33333V20.0001H6ZM11.3333 20.0001V10.6667H14.6667V20.0001H11.3333ZM16.6667 20.0001V10.6667H20V20.0001H16.6667Z" fill="#EF6A01"/>
</svg>
