<svg width="18" height="20" viewBox="0 0 18 20" fill="none" xmlns="http://www.w3.org/2000/svg">
<path d="M11.1643 17.751C11.2533 17.906 11.2523 18.098 11.1623 18.252C10.7063 19.033 9.89829 19.5 9.00029 19.5C8.10229 19.5 7.29429 19.033 6.83829 18.252C6.74829 18.098 6.74729 17.906 6.83629 17.751C6.92529 17.596 7.0903 17.5 7.2703 17.5H10.7303C10.9093 17.5 11.0743 17.596 11.1643 17.751ZM17.3913 15.688C17.3723 15.665 15.4953 13.282 15.4953 10.5V6.995C15.4953 3.414 12.5813 0.5 9.00029 0.5C5.41929 0.5 2.50529 3.414 2.50529 6.995V10.5C2.50529 13.281 0.629295 15.664 0.609295 15.688C0.489295 15.838 0.466298 16.044 0.549298 16.217C0.632298 16.39 0.807295 16.5 0.999295 16.5H16.9993C17.1913 16.5 17.3663 16.39 17.4493 16.217C17.5343 16.043 17.5103 15.838 17.3913 15.688Z" fill="white"/>
</svg>
