<svg width="29" height="29" viewBox="0 0 29 29" fill="none" xmlns="http://www.w3.org/2000/svg">
<path d="M28.0403 5.04003C27.8457 5.2347 27.5897 5.33332 27.3337 5.33332C27.0777 5.33332 26.8217 5.23603 26.627 5.04003L25.667 4.08007V8.33332C25.667 8.88532 25.219 9.33332 24.667 9.33332C24.115 9.33332 23.667 8.88532 23.667 8.33332V4.08137L22.707 5.04133C22.3163 5.432 21.683 5.432 21.2923 5.04133C20.9017 4.65067 20.9017 4.01729 21.2923 3.62662L23.959 0.959952C24.051 0.867952 24.1617 0.794635 24.2843 0.743969C24.5283 0.642635 24.8043 0.642635 25.0483 0.743969C25.171 0.794635 25.2817 0.867952 25.3737 0.959952L28.0403 3.62662C28.431 4.01729 28.431 4.64936 28.0403 5.04003ZM27.3337 15C27.3337 22.4867 21.1537 28.5386 13.6203 28.328C6.66433 28.1346 0.866997 22.336 0.67233 15.38C0.461664 7.8467 6.51367 1.66666 14.0003 1.66666C15.7697 1.66666 17.459 2.0067 18.9963 2.64403C19.2097 2.73203 19.2923 2.98399 19.1977 3.19465C18.703 4.29065 18.5177 5.57866 18.7977 6.93066C19.315 9.43332 21.4857 11.3786 24.0283 11.6346C24.8537 11.7173 25.655 11.6387 26.4017 11.416C26.6217 11.3507 26.8563 11.464 26.9137 11.6854C27.187 12.74 27.3337 13.8547 27.3337 15ZM17.963 17.6893C17.963 16.0866 16.8763 14.692 15.315 14.2974L13.171 13.7653C12.8403 13.6826 12.559 13.4974 12.347 13.2267C12.147 12.9734 12.0363 12.648 12.0363 12.3133C12.0363 11.488 12.707 10.8174 13.5323 10.8174H14.4657C15.2283 10.8174 15.867 11.3907 15.9537 12.1507C16.015 12.7 16.5097 13.1 17.059 13.0334C17.6083 12.972 18.003 12.4774 17.9417 11.9281C17.7617 10.3254 16.5217 9.08926 14.9697 8.86392V8.33332C14.9697 7.78132 14.5217 7.33332 13.9697 7.33332C13.4177 7.33332 12.9697 7.78132 12.9697 8.33332V8.87206C11.3097 9.14406 10.0363 10.576 10.0363 12.3107C10.0363 13.0934 10.299 13.8587 10.7723 14.456C11.247 15.068 11.9243 15.5106 12.6843 15.7026L14.8283 16.2347C15.4963 16.404 15.963 17.0013 15.963 17.6867C15.963 18.084 15.807 18.4587 15.523 18.7427C15.239 19.0267 14.8643 19.1826 14.467 19.1826H13.5337C12.771 19.1826 12.1323 18.6093 12.0457 17.8493C11.9843 17.2999 11.4883 16.8973 10.9403 16.9666C10.391 17.028 9.99633 17.5226 10.0577 18.0719C10.235 19.6546 11.4457 20.8827 12.9697 21.1294V21.6667C12.9697 22.2187 13.4177 22.6667 13.9697 22.6667C14.5217 22.6667 14.9697 22.2187 14.9697 21.6667V21.1361C15.7097 21.0281 16.3963 20.7 16.9363 20.16C17.599 19.4973 17.963 18.6199 17.963 17.6893Z" fill="#576CFF"/>
</svg>
