<svg width="28" height="29" viewBox="0 0 28 29" fill="none" xmlns="http://www.w3.org/2000/svg">
<path d="M26.4117 11.6852C26.3544 11.4626 26.1197 11.3492 25.8997 11.4159C25.1544 11.6385 24.3517 11.7184 23.5264 11.6344C20.9837 11.3784 18.8144 9.43317 18.2957 6.9305C18.0157 5.5785 18.2011 4.2905 18.6957 3.1945C18.7904 2.98383 18.7077 2.73188 18.4944 2.64388C16.957 2.00655 15.2664 1.6665 13.4984 1.6665C6.0117 1.6665 -0.0402895 7.84655 0.170377 15.3799C0.36371 22.3359 6.16239 28.1331 13.1184 28.3278C20.6517 28.5385 26.8317 22.4865 26.8317 14.9998C26.833 13.8545 26.6864 12.7399 26.4117 11.6852ZM16.4371 20.1585C15.8971 20.6985 15.2104 21.0278 14.4704 21.1344V21.6665C14.4704 22.2185 14.0224 22.6665 13.4704 22.6665C12.9184 22.6665 12.4704 22.2185 12.4704 21.6665V21.1318C10.9464 20.8838 9.73705 19.6559 9.55839 18.0745C9.49705 17.5252 9.8917 17.0306 10.441 16.9692C10.9904 16.8999 11.4837 17.3026 11.5464 17.8519C11.6317 18.6119 12.2717 19.1852 13.0344 19.1852H13.9677C14.365 19.1852 14.7397 19.0291 15.0237 18.7451C15.3077 18.4611 15.4637 18.0865 15.4637 17.6891C15.4637 17.0025 14.997 16.4065 14.329 16.2371L12.1851 15.7052C11.4251 15.5119 10.7477 15.0705 10.273 14.4585C9.80105 13.8612 9.53705 13.0958 9.53705 12.3132C9.53705 10.5785 10.8104 9.14518 12.4704 8.87451V8.33317C12.4704 7.78117 12.9184 7.33317 13.4704 7.33317C14.0224 7.33317 14.4704 7.78117 14.4704 8.33317V8.86117C16.0224 9.0865 17.2624 10.3225 17.4424 11.9251C17.5037 12.4745 17.109 12.9691 16.5597 13.0304C16.0117 13.0971 15.5157 12.6971 15.4544 12.1478C15.3691 11.3878 14.7291 10.8145 13.9664 10.8145H13.033C12.2077 10.8145 11.537 11.4852 11.537 12.3105C11.537 12.6452 11.6477 12.9705 11.8477 13.2238C12.0584 13.4958 12.341 13.6799 12.6717 13.7625L14.8157 14.2944C16.3757 14.6891 17.4637 16.0839 17.4637 17.6865C17.4624 18.6199 17.0984 19.4972 16.4371 20.1585ZM27.5397 6.37321L24.873 9.03988C24.781 9.13188 24.6704 9.20519 24.5477 9.25586C24.425 9.30653 24.2957 9.33317 24.165 9.33317C24.0344 9.33317 23.9051 9.30653 23.7824 9.25586C23.6597 9.20519 23.549 9.13188 23.457 9.03988L20.7904 6.37321C20.3997 5.98254 20.3997 5.34916 20.7904 4.9585C21.181 4.56783 21.8144 4.56783 22.2051 4.9585L23.165 5.91846V1.6665C23.165 1.1145 23.613 0.666504 24.165 0.666504C24.717 0.666504 25.165 1.1145 25.165 1.6665V5.91846L26.125 4.9585C26.5157 4.56783 27.149 4.56783 27.5397 4.9585C27.9304 5.34916 27.9304 5.98254 27.5397 6.37321Z" fill="#F9A825"/>
</svg>
