<svg width="20" height="19" viewBox="0 0 20 19" fill="none" xmlns="http://www.w3.org/2000/svg">
<path d="M19 17.2503H18V16.0003C18 15.3333 17.667 15.0003 17 15.0003H16.75V8.00029H17C17.667 8.00029 18 7.66729 18 7.00029V4.44121C18 4.06221 17.786 3.71641 17.447 3.54741L10.671 0.159227C10.249 -0.0517734 9.75198 -0.0517734 9.32898 0.159227L2.55298 3.54741C2.21398 3.71641 2 4.06321 2 4.44121V7.00029C2 7.66729 2.333 8.00029 3 8.00029H3.25V15.0003H3C2.333 15.0003 2 15.3333 2 16.0003V17.2503H1C0.586 17.2503 0.25 17.5863 0.25 18.0003C0.25 18.4143 0.586 18.7503 1 18.7503H19C19.414 18.7503 19.75 18.4143 19.75 18.0003C19.75 17.5863 19.414 17.2503 19 17.2503ZM10 2.75029C10.69 2.75029 11.25 3.31029 11.25 4.00029C11.25 4.69029 10.69 5.25029 10 5.25029C9.31 5.25029 8.75 4.69029 8.75 4.00029C8.75 3.31029 9.31 2.75029 10 2.75029ZM4.75 15.0003V8.00029H7.25V15.0003H4.75ZM8.75 15.0003V8.00029H11.25V15.0003H8.75ZM12.75 15.0003V8.00029H15.25V15.0003H12.75Z" fill="#F57F17"/>
</svg>
