<svg width="18" height="18" viewBox="0 0 18 18" fill="none" xmlns="http://www.w3.org/2000/svg">
<path d="M9.13298 0C9.13598 0 9.13999 0 9.14299 0C9.46199 0 9.59997 0.393006 9.35997 0.600006C7.67897 2.04701 6.755 4.32199 7.226 6.77399C7.749 9.49499 9.98799 11.566 12.773 11.938C14.532 12.173 16.161 11.728 17.456 10.839C17.719 10.658 18.068 10.897 17.989 11.203C16.885 15.519 12.626 18.595 7.76698 17.902C3.73098 17.326 0.543992 14.087 0.065992 10.095C-0.184008 8.013 0.288971 6.05101 1.26997 4.42001C2.85997 1.77401 5.78598 0 9.13298 0Z" fill="#2A2A2A"/>
</svg>
