<svg width="20" height="20" viewBox="0 0 20 20" fill="none" xmlns="http://www.w3.org/2000/svg">
<path d="M10 0C4.477 0 0 4.477 0 10C0 15.523 4.477 20 10 20C15.523 20 20 15.523 20 10C20 4.477 15.523 0 10 0ZM10.02 15.5C9.46802 15.5 9.01489 15.052 9.01489 14.5C9.01489 13.948 9.45801 13.5 10.01 13.5H10.02C10.573 13.5 11.02 13.948 11.02 14.5C11.02 15.052 10.572 15.5 10.02 15.5ZM11.603 10.5281C10.872 11.0181 10.7359 11.291 10.7109 11.363C10.6059 11.676 10.314 11.874 10 11.874C9.921 11.874 9.84096 11.862 9.76196 11.835C9.36896 11.703 9.15806 11.278 9.28906 10.885C9.47006 10.345 9.93909 9.83601 10.7671 9.28101C11.7881 8.59701 11.657 7.84707 11.614 7.60107C11.501 6.94707 10.95 6.38988 10.303 6.27588C9.81098 6.18588 9.3301 6.31488 8.9541 6.62988C8.5761 6.94688 8.35889 7.41391 8.35889 7.90991C8.35889 8.32391 8.02289 8.65991 7.60889 8.65991C7.19489 8.65991 6.85889 8.32391 6.85889 7.90991C6.85889 6.96891 7.27099 6.08396 7.98999 5.48096C8.70199 4.88496 9.63896 4.63605 10.564 4.80005C11.831 5.02405 12.8701 6.07097 13.0911 7.34497C13.3111 8.60697 12.782 9.73808 11.603 10.5281Z" fill="#F57F17"/>
</svg>
