<svg width="19" height="18" viewBox="0 0 19 18" fill="none" xmlns="http://www.w3.org/2000/svg">
<path d="M19 3V15C19 17 18 18 16 18H10C8 18 7 17 7 15V14V9.75H12.189L10.469 11.47C10.176 11.763 10.176 12.238 10.469 12.531C10.615 12.677 10.807 12.751 10.999 12.751C11.191 12.751 11.383 12.678 11.529 12.531L14.529 9.53101C14.598 9.46201 14.653 9.37899 14.691 9.28699C14.767 9.10399 14.767 8.89699 14.691 8.71399C14.653 8.62199 14.598 8.539 14.529 8.47L11.529 5.47C11.236 5.177 10.761 5.177 10.468 5.47C10.175 5.763 10.175 6.23801 10.468 6.53101L12.188 8.25101H7V4V3C7 1 8 0 10 0H16C18 0 19 1 19 3ZM1 8.25C0.586 8.25 0.25 8.586 0.25 9C0.25 9.414 0.586 9.75 1 9.75H7V8.25H1Z" fill="#F44336"/>
</svg>
