<svg width="20" height="18" viewBox="0 0 20 18" fill="none" xmlns="http://www.w3.org/2000/svg">
<path d="M1.00146 8.85498C0.974456 8.85498 0.946509 8.85395 0.918509 8.85095C0.506509 8.80595 0.209508 8.43505 0.254508 8.02405C0.617508 4.70705 2.61949 1.84996 5.60949 0.381958C5.84249 0.267958 6.11748 0.281945 6.33648 0.418945C6.55648 0.555945 6.69048 0.79703 6.69048 1.05603V4.10596C6.69048 4.51996 6.35448 4.85596 5.94048 4.85596C5.52648 4.85596 5.19048 4.51996 5.19048 4.10596V2.36499C3.26748 3.70299 2.00645 5.80401 1.74645 8.18701C1.70445 8.57101 1.37846 8.85498 1.00146 8.85498ZM14.3915 17.729C17.3825 16.261 19.3845 13.404 19.7465 10.087C19.7915 9.67504 19.4944 9.30501 19.0824 9.26001C18.6694 9.21601 18.3005 9.51195 18.2555 9.92395C17.9955 12.3069 16.7345 14.4079 14.8115 15.7469V14.006C14.8115 13.592 14.4755 13.256 14.0615 13.256C13.6475 13.256 13.3115 13.592 13.3115 14.006V17.056C13.3115 17.315 13.4455 17.556 13.6655 17.693C13.7865 17.768 13.9235 17.806 14.0615 17.806C14.1735 17.806 14.2865 17.78 14.3915 17.729ZM9.50048 11H3.50048C2.50048 11 2.00048 11.5 2.00048 12.5V12.75H11.0005V12.5C11.0005 11.5 10.5005 11 9.50048 11ZM2.00048 14.25V16.5C2.00048 17.5 2.50048 18 3.50048 18H9.50048C10.5005 18 11.0005 17.5 11.0005 16.5V14.25H2.00048ZM5.50048 16.5H4.00048C3.72048 16.5 3.50048 16.28 3.50048 16C3.50048 15.72 3.72048 15.5 4.00048 15.5H5.50048C5.78048 15.5 6.00048 15.72 6.00048 16C6.00048 16.28 5.78048 16.5 5.50048 16.5ZM16.5005 0H10.5005C9.50048 0 9.00048 0.5 9.00048 1.5V1.75H18.0005V1.5C18.0005 0.5 17.5005 0 16.5005 0ZM9.00048 3.25V5.5C9.00048 6.5 9.50048 7 10.5005 7H16.5005C17.5005 7 18.0005 6.5 18.0005 5.5V3.25H9.00048ZM12.5005 5.5H11.0005C10.7205 5.5 10.5005 5.28 10.5005 5C10.5005 4.72 10.7205 4.5 11.0005 4.5H12.5005C12.7805 4.5 13.0005 4.72 13.0005 5C13.0005 5.28 12.7805 5.5 12.5005 5.5Z" fill="#F44336"/>
</svg>
