<svg width="21" height="20" viewBox="0 0 21 20" fill="none" xmlns="http://www.w3.org/2000/svg">
<path d="M20.25 2.5V6C20.25 6.414 19.914 6.75 19.5 6.75C19.086 6.75 18.75 6.414 18.75 6V2.5C18.75 1.911 18.589 1.75 18 1.75H14.5C14.086 1.75 13.75 1.414 13.75 1C13.75 0.586 14.086 0.25 14.5 0.25H18C19.409 0.25 20.25 1.091 20.25 2.5ZM1.5 6.75C1.914 6.75 2.25 6.414 2.25 6V2.5C2.25 1.911 2.411 1.75 3 1.75H6.5C6.914 1.75 7.25 1.414 7.25 1C7.25 0.586 6.914 0.25 6.5 0.25H3C1.591 0.25 0.75 1.091 0.75 2.5V6C0.75 6.414 1.086 6.75 1.5 6.75ZM6.5 18.25H3C2.411 18.25 2.25 18.089 2.25 17.5V14C2.25 13.586 1.914 13.25 1.5 13.25C1.086 13.25 0.75 13.586 0.75 14V17.5C0.75 18.909 1.591 19.75 3 19.75H6.5C6.914 19.75 7.25 19.414 7.25 19C7.25 18.586 6.914 18.25 6.5 18.25ZM19.5 13.25C19.086 13.25 18.75 13.586 18.75 14V17.5C18.75 18.089 18.589 18.25 18 18.25H14.5C14.086 18.25 13.75 18.586 13.75 19C13.75 19.414 14.086 19.75 14.5 19.75H18C19.409 19.75 20.25 18.909 20.25 17.5V14C20.25 13.586 19.914 13.25 19.5 13.25ZM10.75 8.25V5.75C10.75 4.839 11.339 4.25 12.25 4.25H14.75C15.661 4.25 16.25 4.839 16.25 5.75V8.25C16.25 9.161 15.661 9.75 14.75 9.75H12.25C11.339 9.75 10.75 9.161 10.75 8.25ZM12.25 8.25H14.7419L14.75 5.758L12.2581 5.75L12.25 8.25ZM10.25 5.75V8.25C10.25 9.161 9.661 9.75 8.75 9.75H6.25C5.339 9.75 4.75 9.161 4.75 8.25V5.75C4.75 4.839 5.339 4.25 6.25 4.25H8.75C9.661 4.25 10.25 4.839 10.25 5.75ZM8.75 5.758L6.25806 5.75L6.25 8.25H8.74194L8.75 5.758ZM14.75 15.75H12.25C11.339 15.75 10.75 15.161 10.75 14.25V11.75C10.75 10.839 11.339 10.25 12.25 10.25H14.75C15.661 10.25 16.25 10.839 16.25 11.75V14.25C16.25 15.161 15.661 15.75 14.75 15.75ZM14.7419 14.25L14.75 11.758L12.2581 11.75L12.25 14.25H14.7419ZM10.25 11.75V14.25C10.25 15.161 9.661 15.75 8.75 15.75H6.25C5.339 15.75 4.75 15.161 4.75 14.25V11.75C4.75 10.839 5.339 10.25 6.25 10.25H8.75C9.661 10.25 10.25 10.839 10.25 11.75ZM8.75 11.758L6.25806 11.75L6.25 14.25H8.74194L8.75 11.758Z" fill="white"/>
</svg>
