<svg width="21" height="19" viewBox="0 0 21 19" fill="none" xmlns="http://www.w3.org/2000/svg">
<path d="M16.5 3.25H15.04L14.554 1.78906C14.247 0.869062 13.3889 0.25 12.4189 0.25H8.58105C7.61105 0.25 6.75305 0.869062 6.44604 1.78906L5.95996 3.25H4.5C2.082 3.25 0.75 4.582 0.75 7V15C0.75 17.418 2.082 18.75 4.5 18.75H16.5C18.918 18.75 20.25 17.418 20.25 15V7C20.25 4.582 18.918 3.25 16.5 3.25ZM18.75 15C18.75 16.577 18.077 17.25 16.5 17.25H4.5C2.923 17.25 2.25 16.577 2.25 15V7C2.25 5.423 2.923 4.75 4.5 4.75H6.5C6.823 4.75 7.10891 4.54306 7.21191 4.23706L7.87012 2.26196C7.97212 1.95496 8.25805 1.74902 8.58105 1.74902H12.4189C12.7419 1.74902 13.0279 1.95496 13.1299 2.26196L13.7881 4.23608C13.8911 4.54208 14.177 4.74902 14.5 4.74902H16.5C18.077 4.74902 18.75 5.42202 18.75 6.99902V15ZM10.5 7.25C8.433 7.25 6.75 8.932 6.75 11C6.75 13.068 8.433 14.75 10.5 14.75C12.567 14.75 14.25 13.068 14.25 11C14.25 8.932 12.567 7.25 10.5 7.25ZM10.5 13.25C9.26 13.25 8.25 12.241 8.25 11C8.25 9.759 9.26 8.75 10.5 8.75C11.74 8.75 12.75 9.759 12.75 11C12.75 12.241 11.74 13.25 10.5 13.25ZM17 7.5C17 8.052 16.552 8.5 16 8.5C15.448 8.5 15 8.052 15 7.5C15 6.948 15.448 6.5 16 6.5C16.552 6.5 17 6.948 17 7.5Z" fill="white"/>
</svg>
