<svg width="20" height="20" viewBox="0 0 20 20" fill="none" xmlns="http://www.w3.org/2000/svg">
<path d="M11.75 12C11.75 12.414 11.414 12.75 11 12.75H5C4.586 12.75 4.25 12.414 4.25 12C4.25 11.586 4.586 11.25 5 11.25H11C11.414 11.25 11.75 11.586 11.75 12ZM8 14.25H5C4.586 14.25 4.25 14.586 4.25 15C4.25 15.414 4.586 15.75 5 15.75H8C8.414 15.75 8.75 15.414 8.75 15C8.75 14.586 8.414 14.25 8 14.25ZM19.75 9.5V17C19.75 18.517 18.517 19.75 17 19.75H4C1.582 19.75 0.25 18.418 0.25 16V4C0.25 1.582 1.582 0.25 4 0.25H12C14.418 0.25 15.75 1.582 15.75 4V7.25H17.5C18.741 7.25 19.75 8.259 19.75 9.5ZM14.551 18.25C14.359 17.875 14.25 17.45 14.25 17V4C14.25 2.423 13.577 1.75 12 1.75H4C2.423 1.75 1.75 2.423 1.75 4V16C1.75 17.577 2.423 18.25 4 18.25H14.551ZM18.25 9.5C18.25 9.086 17.914 8.75 17.5 8.75H15.75V17C15.75 17.689 16.311 18.25 17 18.25C17.689 18.25 18.25 17.689 18.25 17V9.5ZM5.633 7.10596L6.56201 7.34595C6.71501 7.38595 6.82202 7.53596 6.82202 7.70996C6.82202 7.84996 6.75403 7.94106 6.71503 7.98206C6.67103 8.02806 6.59501 8.08301 6.48901 8.08301H6.08398C5.91798 8.08301 5.77299 7.93695 5.75299 7.75195C5.70799 7.33995 5.34303 7.04304 4.92603 7.08704C4.51403 7.13104 4.21699 7.50194 4.26099 7.91394C4.34199 8.66594 4.85201 9.26606 5.52301 9.48706V9.5C5.52301 9.914 5.85901 10.25 6.27301 10.25C6.68701 10.25 7.02301 9.914 7.02301 9.5V9.49304C7.31001 9.40304 7.57501 9.25005 7.79401 9.02405C8.13401 8.67005 8.32098 8.20406 8.32098 7.71106C8.32098 6.85506 7.75403 6.10902 6.93903 5.89502L6.00897 5.65503C5.91897 5.63103 5.86097 5.57398 5.82397 5.52698C5.77697 5.46498 5.74902 5.37902 5.74902 5.29102C5.74902 5.08502 5.89797 4.91699 6.08197 4.91699H6.487C6.655 4.91699 6.79799 5.05905 6.81799 5.24805C6.86199 5.66005 7.22402 5.95396 7.64502 5.91296C8.05702 5.86896 8.354 5.49806 8.31 5.08606C8.228 4.32506 7.70597 3.71998 7.02197 3.50598V3.50098C7.02197 3.08698 6.68597 2.75098 6.27197 2.75098C5.85797 2.75098 5.52197 3.08698 5.52197 3.50098V3.51599C4.78597 3.75899 4.24902 4.45802 4.24902 5.29102C4.24902 5.70602 4.38401 6.11203 4.62701 6.43103C4.87701 6.76203 5.233 7.00196 5.633 7.10596Z" fill="#F57F17"/>
</svg>
