<svg width="20" height="20" viewBox="0 0 20 20" fill="none" xmlns="http://www.w3.org/2000/svg">
<path d="M19.75 12.269C19.749 10.279 17.217 8.746 13.75 8.552V3.98999C13.749 1.40699 10.36 0.25 7 0.25C3.64 0.25 0.251 1.40599 0.25 3.98999V15.01C0.25 17.593 3.64 18.75 7 18.75C7.347 18.75 7.70301 18.718 8.05701 18.683C9.35101 19.406 11.178 19.75 13 19.75C16.359 19.75 19.75 18.593 19.75 16.01V12.269C19.75 12.27 19.75 12.27 19.75 12.269ZM18.25 12.271C18.25 13.329 16.005 14.512 13 14.512C9.995 14.512 7.75 13.329 7.75 12.271C7.75 11.883 8.05701 11.479 8.58801 11.122C8.60601 11.112 8.62002 11.098 8.63702 11.087C9.56102 10.487 11.133 10.03 13 10.03C16.005 10.03 18.25 11.213 18.25 12.271ZM12.25 7.53003C12.25 7.98103 11.854 8.35797 11.477 8.62097C10.086 8.78597 8.88501 9.17502 7.98401 9.72302C7.66401 9.75002 7.34198 9.77002 7.00098 9.77002C4.17298 9.77002 1.75098 8.53803 1.75098 7.53003V6.47803C3.05198 7.33003 5.02898 7.73199 7.00098 7.73199C8.97298 7.73199 10.95 7.33003 12.251 6.47803V7.53003H12.25ZM1.75 9.849C2.953 10.663 4.72401 11.172 6.48901 11.256C6.33701 11.577 6.25 11.915 6.25 12.27C6.25 12.27 6.25 12.27 6.25 12.271V13.479C3.758 13.288 1.75 12.189 1.75 11.271V9.849ZM7 1.75C9.581 1.75 12.25 2.58803 12.25 3.99103C12.25 5.44703 9.545 6.23199 7 6.23199C4.455 6.23199 1.75 5.44703 1.75 3.99103C1.75 2.58803 4.419 1.75 7 1.75ZM1.75 15.01V13.589C2.899 14.366 4.564 14.865 6.25 14.981V16.01C6.25 16.465 6.36 16.873 6.552 17.241C4.119 17.15 1.75 16.331 1.75 15.01ZM13 18.25C11.381 18.25 9.72801 17.92 8.72101 17.328C8.12201 16.976 7.75098 16.532 7.75098 16.01V14.676C8.96898 15.502 10.835 16.012 13.001 16.012C15.167 16.012 17.033 15.502 18.251 14.676V16.01C18.25 17.412 15.581 18.25 13 18.25Z" fill="#43A048"/>
</svg>
