<svg width="18" height="20" viewBox="0 0 18 20" fill="none" xmlns="http://www.w3.org/2000/svg">
<path d="M13.321 4.42505L14.236 2.90002C14.564 2.35202 14.572 1.69296 14.257 1.13696C13.942 0.580963 13.373 0.25 12.735 0.25H5.26501C4.62601 0.25 4.05701 0.581963 3.74301 1.13696C3.42901 1.69296 3.43601 2.35202 3.76501 2.90002L4.67899 4.42505C1.73999 7.13705 0.25 10.019 0.25 13C0.25 14.583 0.881 19.75 9 19.75C17.119 19.75 17.75 14.583 17.75 13C17.75 10.019 16.261 7.13705 13.321 4.42505ZM5.048 1.87598C5.075 1.82898 5.13901 1.75 5.26501 1.75H12.735C12.861 1.75 12.925 1.82998 12.952 1.87598C12.979 1.92298 13.014 2.02005 12.949 2.12805L11.935 3.81897H6.065L5.05099 2.12805C4.98599 2.02005 5.021 1.92398 5.048 1.87598ZM9 18.25C2.457 18.25 1.75 14.579 1.75 13C1.75 10.382 3.165 7.79995 5.935 5.31995H12.065C14.836 7.79995 16.25 10.382 16.25 13C16.25 14.579 15.543 18.25 9 18.25ZM9.81799 11.433L8.55301 11.114C8.39301 11.072 8.25702 10.982 8.15302 10.847C8.05402 10.72 8 10.556 8 10.387C8 9.97396 8.32501 9.63904 8.72501 9.63904H9.276C9.645 9.63904 9.954 9.92505 9.996 10.3051C10.041 10.7171 10.406 11.011 10.824 10.968C11.236 10.923 11.532 10.551 11.487 10.14C11.379 9.16301 10.665 8.39695 9.75 8.19495V8C9.75 7.586 9.414 7.25 9 7.25C8.586 7.25 8.25 7.586 8.25 8V8.19299C7.251 8.41399 6.5 9.31196 6.5 10.387C6.5 10.888 6.66699 11.378 6.96399 11.762C7.26499 12.157 7.69601 12.442 8.18201 12.567L9.44699 12.886C9.77299 12.97 10 13.269 10 13.613C10 13.813 9.92301 14.002 9.78201 14.145C9.64501 14.285 9.46499 14.361 9.27499 14.361H8.724C8.355 14.361 8.046 14.0749 8.004 13.6949C7.958 13.2829 7.59299 12.987 7.17599 13.032C6.76399 13.077 6.468 13.449 6.513 13.86C6.621 14.837 7.335 15.6031 8.25 15.8051V16C8.25 16.414 8.586 16.75 9 16.75C9.414 16.75 9.75 16.414 9.75 16V15.807C10.164 15.716 10.545 15.509 10.851 15.198C11.269 14.774 11.5 14.211 11.5 13.614C11.5 12.584 10.81 11.688 9.81799 11.433Z" fill="#FB8A00"/>
</svg>
