<svg width="22" height="19" viewBox="0 0 22 19" fill="none" xmlns="http://www.w3.org/2000/svg">
<path d="M10 14.25H4C2.423 14.25 1.75 13.577 1.75 12V6.75H18.25V7C18.25 7.414 18.586 7.75 19 7.75C19.414 7.75 19.75 7.414 19.75 7V4C19.75 1.582 18.418 0.25 16 0.25H4C1.582 0.25 0.25 1.582 0.25 4V12C0.25 14.418 1.582 15.75 4 15.75H10C10.414 15.75 10.75 15.414 10.75 15C10.75 14.586 10.414 14.25 10 14.25ZM4 1.75H16C17.577 1.75 18.25 2.423 18.25 4V5.25H1.75V4C1.75 2.423 2.423 1.75 4 1.75ZM8 10.25C8.414 10.25 8.75 10.586 8.75 11C8.75 11.414 8.414 11.75 8 11.75H5C4.586 11.75 4.25 11.414 4.25 11C4.25 10.586 4.586 10.25 5 10.25H8ZM19 14C19 14.414 18.664 14.75 18.25 14.75H15.75C15.336 14.75 15 14.414 15 14C15 13.586 15.336 13.25 15.75 13.25H18.25C18.664 13.25 19 13.586 19 14ZM17 9.25C14.381 9.25 12.25 11.381 12.25 14C12.25 16.619 14.381 18.75 17 18.75C19.619 18.75 21.75 16.619 21.75 14C21.75 11.381 19.619 9.25 17 9.25ZM17 17.25C15.208 17.25 13.75 15.792 13.75 14C13.75 12.208 15.208 10.75 17 10.75C18.792 10.75 20.25 12.208 20.25 14C20.25 15.792 18.792 17.25 17 17.25Z" fill="#1E3AE5"/>
</svg>
