<svg width="4" height="7" viewBox="0 0 4 7" fill="none" xmlns="http://www.w3.org/2000/svg">
<path fill-rule="evenodd" clip-rule="evenodd" d="M4 2.78842L3.79852 2.78842L3.79852 1.99077L4 1.99077L4 1.70054L3.79852 1.70054L3.79852 -8.80718e-09L3.71203 -1.25875e-08L3.71203 2.83485L3.71203 3.69219L3.71203 4.55385L3.71203 5.07084C3.71203 5.09293 3.71167 5.11493 3.71095 5.13683L0.293181 5.13683C0.292467 5.11493 0.2921 5.09293 0.2921 5.07084L0.2921 4.54524L0.2921 3.69219L0.2921 2.83053L0.2921 -1.62078e-07L0.205616 -1.65858e-07L0.205616 1.70054L4.02504e-07 1.70054L3.89818e-07 1.99077L0.205616 1.99077L0.205616 2.7841L0.00413 2.7841L0.00413 2.87697L0.205616 2.87697L0.205616 3.64576L0.00412997 3.64576L0.00412996 3.73863L0.205616 3.73863L0.205616 4.4988L0.00412993 4.4988L0.00412992 4.59168L0.205616 4.59168L0.205616 5.07084C0.205615 6.13628 1.00992 7 2.00207 7C2.99422 7 3.79852 6.13629 3.79852 5.07084L3.79852 4.60029L4 4.60029L4 4.50742L3.79852 4.50742L3.79852 3.73863L4 3.73863L4 3.64576L3.79852 3.64576L3.79852 2.88129L4 2.88129L4 2.78842ZM0.298413 5.2297C0.373395 6.16948 1.10751 6.90713 2.00207 6.90713C2.89662 6.90713 3.63073 6.16948 3.70572 5.2297L0.298413 5.2297Z" fill="white"/>
</svg>
