<svg width="5" height="8" viewBox="0 0 5 8" fill="none" xmlns="http://www.w3.org/2000/svg">
<g clip-path="url(#clip0_1_4)">
<g filter="url(#filter0_d_1_4)">
<path fill-rule="evenodd" clip-rule="evenodd" d="M5 3.18677L4.74814 3.18677L4.74814 2.27517L5 2.27517L5 1.94347L4.74814 1.94347L4.74814 1.1009e-08L4.64004 1.57344e-08L4.64004 3.23983L4.64004 4.21965L4.64004 5.2044L4.64004 5.79525C4.64004 5.82049 4.63959 5.84563 4.63869 5.87066L0.366463 5.87066C0.365588 5.84563 0.365125 5.82049 0.365125 5.79525L0.365125 5.19456L0.365125 4.21965L0.365125 3.23489L0.365125 2.02597e-07L0.257013 2.07323e-07L0.257013 1.94347L5.61789e-07 1.94347L5.76288e-07 2.27517L0.257013 2.27517L0.257013 3.18183L0.00516285 3.18183L0.00516286 3.28797L0.257013 3.28797L0.257013 4.16658L0.0051629 4.16658L0.0051629 4.27272L0.257013 4.27272L0.257013 5.14149L0.00516294 5.14149L0.00516295 5.24763L0.257013 5.24763L0.257013 5.79525C0.257013 7.0129 1.26239 8 2.50259 8C3.74278 8 4.74814 7.0129 4.74814 5.79525L4.74814 5.25747L5 5.25747L5 5.15134L4.74814 5.15134L4.74814 4.27272L5 4.27272L5 4.16658L4.74814 4.16658L4.74814 3.2929L5 3.2929L5 3.18677ZM0.373013 5.9768C0.466738 7.05083 1.38439 7.89386 2.50259 7.89386C3.62078 7.89386 4.53842 7.05083 4.63215 5.9768L0.373013 5.9768Z" fill="white"/>
</g>
</g>
<defs>
<filter id="filter0_d_1_4" x="-4" y="0" width="13" height="16" filterUnits="userSpaceOnUse" color-interpolation-filters="sRGB">
<feFlood flood-opacity="0" result="BackgroundImageFix"/>
<feColorMatrix in="SourceAlpha" type="matrix" values="0 0 0 0 0 0 0 0 0 0 0 0 0 0 0 0 0 0 127 0" result="hardAlpha"/>
<feOffset dy="4"/>
<feGaussianBlur stdDeviation="2"/>
<feComposite in2="hardAlpha" operator="out"/>
<feColorMatrix type="matrix" values="0 0 0 0 0 0 0 0 0 0 0 0 0 0 0 0 0 0 0.25 0"/>
<feBlend mode="normal" in2="BackgroundImageFix" result="effect1_dropShadow_1_4"/>
<feBlend mode="normal" in="SourceGraphic" in2="effect1_dropShadow_1_4" result="shape"/>
</filter>
<clipPath id="clip0_1_4">
<rect width="8" height="5" fill="white" transform="matrix(-4.37114e-08 -1 -1 4.37114e-08 5 8)"/>
</clipPath>
</defs>
</svg>
