<svg width="21" height="20" viewBox="0 0 21 20" fill="none" xmlns="http://www.w3.org/2000/svg">
<path d="M12.25 12C12.25 12.414 11.914 12.75 11.5 12.75H5.5C5.086 12.75 4.75 12.414 4.75 12C4.75 11.586 5.086 11.25 5.5 11.25H11.5C11.914 11.25 12.25 11.586 12.25 12ZM8.5 14.25H5.5C5.086 14.25 4.75 14.586 4.75 15C4.75 15.414 5.086 15.75 5.5 15.75H8.5C8.914 15.75 9.25 15.414 9.25 15C9.25 14.586 8.914 14.25 8.5 14.25ZM20.25 9.5V17C20.25 18.517 19.017 19.75 17.5 19.75H4.5C2.082 19.75 0.75 18.418 0.75 16V4C0.75 1.582 2.082 0.25 4.5 0.25H12.5C14.918 0.25 16.25 1.582 16.25 4V7.25H18C19.241 7.25 20.25 8.259 20.25 9.5ZM15.051 18.25C14.859 17.875 14.75 17.45 14.75 17V4C14.75 2.423 14.077 1.75 12.5 1.75H4.5C2.923 1.75 2.25 2.423 2.25 4V16C2.25 17.577 2.923 18.25 4.5 18.25H15.051ZM18.75 9.5C18.75 9.086 18.414 8.75 18 8.75H16.25V17C16.25 17.689 16.811 18.25 17.5 18.25C18.189 18.25 18.75 17.689 18.75 17V9.5ZM6.133 7.10596L7.06201 7.34595C7.21501 7.38595 7.32202 7.53596 7.32202 7.70996C7.32202 7.84996 7.25403 7.94106 7.21503 7.98206C7.17103 8.02806 7.09501 8.08301 6.98901 8.08301H6.58398C6.41798 8.08301 6.27299 7.93695 6.25299 7.75195C6.20799 7.33995 5.84303 7.04304 5.42603 7.08704C5.01403 7.13104 4.71699 7.50194 4.76099 7.91394C4.84199 8.66594 5.35201 9.26606 6.02301 9.48706V9.5C6.02301 9.914 6.35901 10.25 6.77301 10.25C7.18701 10.25 7.52301 9.914 7.52301 9.5V9.49304C7.81001 9.40304 8.07501 9.25005 8.29401 9.02405C8.63401 8.67005 8.82098 8.20406 8.82098 7.71106C8.82098 6.85506 8.25403 6.10902 7.43903 5.89502L6.50897 5.65503C6.41897 5.63103 6.36097 5.57398 6.32397 5.52698C6.27697 5.46498 6.24902 5.37902 6.24902 5.29102C6.24902 5.08502 6.39797 4.91699 6.58197 4.91699H6.987C7.155 4.91699 7.29799 5.05905 7.31799 5.24805C7.36199 5.66005 7.72402 5.95396 8.14502 5.91296C8.55702 5.86896 8.854 5.49806 8.81 5.08606C8.728 4.32506 8.20597 3.71998 7.52197 3.50598V3.50098C7.52197 3.08698 7.18597 2.75098 6.77197 2.75098C6.35797 2.75098 6.02197 3.08698 6.02197 3.50098V3.51599C5.28597 3.75899 4.74902 4.45802 4.74902 5.29102C4.74902 5.70602 4.88401 6.11203 5.12701 6.43103C5.37701 6.76203 5.733 7.00196 6.133 7.10596Z" fill="#F57F17"/>
</svg>
