<svg width="21" height="20" viewBox="0 0 21 20" fill="none" xmlns="http://www.w3.org/2000/svg">
<path d="M20.25 12.269C20.249 10.279 17.717 8.746 14.25 8.552V3.98999C14.249 1.40699 10.86 0.25 7.5 0.25C4.14 0.25 0.751 1.40599 0.75 3.98999V15.01C0.75 17.593 4.14 18.75 7.5 18.75C7.847 18.75 8.20301 18.718 8.55701 18.683C9.85101 19.406 11.678 19.75 13.5 19.75C16.859 19.75 20.25 18.593 20.25 16.01V12.269C20.25 12.27 20.25 12.27 20.25 12.269ZM18.75 12.271C18.75 13.329 16.505 14.512 13.5 14.512C10.495 14.512 8.25 13.329 8.25 12.271C8.25 11.883 8.55701 11.479 9.08801 11.122C9.10601 11.112 9.12002 11.098 9.13702 11.087C10.061 10.487 11.633 10.03 13.5 10.03C16.505 10.03 18.75 11.213 18.75 12.271ZM12.75 7.53003C12.75 7.98103 12.354 8.35797 11.977 8.62097C10.586 8.78597 9.38501 9.17502 8.48401 9.72302C8.16401 9.75002 7.84198 9.77002 7.50098 9.77002C4.67298 9.77002 2.25098 8.53803 2.25098 7.53003V6.47803C3.55198 7.33003 5.52898 7.73199 7.50098 7.73199C9.47298 7.73199 11.45 7.33003 12.751 6.47803V7.53003H12.75ZM2.25 9.849C3.453 10.663 5.22401 11.172 6.98901 11.256C6.83701 11.577 6.75 11.915 6.75 12.27C6.75 12.27 6.75 12.27 6.75 12.271V13.479C4.258 13.288 2.25 12.189 2.25 11.271V9.849ZM7.5 1.75C10.081 1.75 12.75 2.58803 12.75 3.99103C12.75 5.44703 10.045 6.23199 7.5 6.23199C4.955 6.23199 2.25 5.44703 2.25 3.99103C2.25 2.58803 4.919 1.75 7.5 1.75ZM2.25 15.01V13.589C3.399 14.366 5.064 14.865 6.75 14.981V16.01C6.75 16.465 6.86 16.873 7.052 17.241C4.619 17.15 2.25 16.331 2.25 15.01ZM13.5 18.25C11.881 18.25 10.228 17.92 9.22101 17.328C8.62201 16.976 8.25098 16.532 8.25098 16.01V14.676C9.46898 15.502 11.335 16.012 13.501 16.012C15.667 16.012 17.533 15.502 18.751 14.676V16.01C18.75 17.412 16.081 18.25 13.5 18.25Z" fill="#43A048"/>
</svg>
