<svg width="19" height="20" viewBox="0 0 19 20" fill="none" xmlns="http://www.w3.org/2000/svg">
<path d="M13.821 4.42505L14.736 2.90002C15.064 2.35202 15.072 1.69296 14.757 1.13696C14.442 0.580963 13.873 0.25 13.235 0.25H5.76501C5.12601 0.25 4.55701 0.581963 4.24301 1.13696C3.92901 1.69296 3.93601 2.35202 4.26501 2.90002L5.17899 4.42505C2.23999 7.13705 0.75 10.019 0.75 13C0.75 14.583 1.381 19.75 9.5 19.75C17.619 19.75 18.25 14.583 18.25 13C18.25 10.019 16.761 7.13705 13.821 4.42505ZM5.548 1.87598C5.575 1.82898 5.63901 1.75 5.76501 1.75H13.235C13.361 1.75 13.425 1.82998 13.452 1.87598C13.479 1.92298 13.514 2.02005 13.449 2.12805L12.435 3.81897H6.565L5.55099 2.12805C5.48599 2.02005 5.521 1.92398 5.548 1.87598ZM9.5 18.25C2.957 18.25 2.25 14.579 2.25 13C2.25 10.382 3.665 7.79995 6.435 5.31995H12.565C15.336 7.79995 16.75 10.382 16.75 13C16.75 14.579 16.043 18.25 9.5 18.25ZM10.318 11.433L9.05301 11.114C8.89301 11.072 8.75702 10.982 8.65302 10.847C8.55402 10.72 8.5 10.556 8.5 10.387C8.5 9.97396 8.82501 9.63904 9.22501 9.63904H9.776C10.145 9.63904 10.454 9.92505 10.496 10.3051C10.541 10.7171 10.906 11.011 11.324 10.968C11.736 10.923 12.032 10.551 11.987 10.14C11.879 9.16301 11.165 8.39695 10.25 8.19495V8C10.25 7.586 9.914 7.25 9.5 7.25C9.086 7.25 8.75 7.586 8.75 8V8.19299C7.751 8.41399 7 9.31196 7 10.387C7 10.888 7.16699 11.378 7.46399 11.762C7.76499 12.157 8.19601 12.442 8.68201 12.567L9.94699 12.886C10.273 12.97 10.5 13.269 10.5 13.613C10.5 13.813 10.423 14.002 10.282 14.145C10.145 14.285 9.96499 14.361 9.77499 14.361H9.224C8.855 14.361 8.546 14.0749 8.504 13.6949C8.458 13.2829 8.09299 12.987 7.67599 13.032C7.26399 13.077 6.968 13.449 7.013 13.86C7.121 14.837 7.835 15.6031 8.75 15.8051V16C8.75 16.414 9.086 16.75 9.5 16.75C9.914 16.75 10.25 16.414 10.25 16V15.807C10.664 15.716 11.045 15.509 11.351 15.198C11.769 14.774 12 14.211 12 13.614C12 12.584 11.31 11.688 10.318 11.433Z" fill="#FB8A00"/>
</svg>
