<svg width="23" height="19" viewBox="0 0 23 19" fill="none" xmlns="http://www.w3.org/2000/svg">
<path d="M10.5 14.25H4.5C2.923 14.25 2.25 13.577 2.25 12V6.75H18.75V7C18.75 7.414 19.086 7.75 19.5 7.75C19.914 7.75 20.25 7.414 20.25 7V4C20.25 1.582 18.918 0.25 16.5 0.25H4.5C2.082 0.25 0.75 1.582 0.75 4V12C0.75 14.418 2.082 15.75 4.5 15.75H10.5C10.914 15.75 11.25 15.414 11.25 15C11.25 14.586 10.914 14.25 10.5 14.25ZM4.5 1.75H16.5C18.077 1.75 18.75 2.423 18.75 4V5.25H2.25V4C2.25 2.423 2.923 1.75 4.5 1.75ZM8.5 10.25C8.914 10.25 9.25 10.586 9.25 11C9.25 11.414 8.914 11.75 8.5 11.75H5.5C5.086 11.75 4.75 11.414 4.75 11C4.75 10.586 5.086 10.25 5.5 10.25H8.5ZM19.5 14C19.5 14.414 19.164 14.75 18.75 14.75H16.25C15.836 14.75 15.5 14.414 15.5 14C15.5 13.586 15.836 13.25 16.25 13.25H18.75C19.164 13.25 19.5 13.586 19.5 14ZM17.5 9.25C14.881 9.25 12.75 11.381 12.75 14C12.75 16.619 14.881 18.75 17.5 18.75C20.119 18.75 22.25 16.619 22.25 14C22.25 11.381 20.119 9.25 17.5 9.25ZM17.5 17.25C15.708 17.25 14.25 15.792 14.25 14C14.25 12.208 15.708 10.75 17.5 10.75C19.292 10.75 20.75 12.208 20.75 14C20.75 15.792 19.292 17.25 17.5 17.25Z" fill="#1E3AE5"/>
</svg>
